G04 MADE WITH FRITZING*
G04 WWW.FRITZING.ORG*
G04 DOUBLE SIDED*
G04 HOLES PLATED*
G04 CONTOUR ON CENTER OF CONTOUR VECTOR*
%ASAXBY*%
%FSLAX23Y23*%
%MOIN*%
%OFA0B0*%
%SFA1.0B1.0*%
%ADD10C,0.075000*%
%ADD11C,0.055118*%
%ADD12R,0.075000X0.075000*%
%ADD13C,0.024000*%
%LNCOPPER1*%
G90*
G70*
G54D10*
X163Y557D03*
X463Y557D03*
X263Y657D03*
X463Y657D03*
G54D11*
X563Y57D03*
X463Y57D03*
X363Y57D03*
X263Y57D03*
X163Y57D03*
G54D10*
X163Y457D03*
X463Y457D03*
X163Y357D03*
X463Y357D03*
X163Y257D03*
X463Y257D03*
X163Y157D03*
X463Y157D03*
G54D11*
X563Y757D03*
X63Y757D03*
X563Y657D03*
X63Y657D03*
X563Y557D03*
X63Y557D03*
G54D12*
X163Y457D03*
G54D13*
X263Y628D02*
X263Y357D01*
D02*
X263Y357D02*
X192Y357D01*
D02*
X363Y83D02*
X363Y357D01*
D02*
X363Y357D02*
X434Y357D01*
D02*
X463Y83D02*
X463Y157D01*
D02*
X563Y83D02*
X563Y257D01*
D02*
X563Y257D02*
X492Y257D01*
D02*
X163Y57D02*
X163Y157D01*
D02*
X263Y83D02*
X263Y257D01*
D02*
X263Y257D02*
X192Y257D01*
D02*
X536Y757D02*
X90Y757D01*
D02*
X363Y457D02*
X434Y457D01*
D02*
X536Y757D02*
X363Y757D01*
D02*
X363Y757D02*
X363Y457D01*
D02*
X492Y657D02*
X536Y657D01*
D02*
X90Y657D02*
X234Y657D01*
D02*
X492Y557D02*
X536Y557D01*
D02*
X134Y157D02*
X63Y157D01*
D02*
X63Y157D02*
X63Y530D01*
D02*
X90Y557D02*
X134Y557D01*
G04 End of Copper1*
M02*