G04 MADE WITH FRITZING*
G04 WWW.FRITZING.ORG*
G04 DOUBLE SIDED*
G04 HOLES PLATED*
G04 CONTOUR ON CENTER OF CONTOUR VECTOR*
%ASAXBY*%
%FSLAX23Y23*%
%MOIN*%
%OFA0B0*%
%SFA1.0B1.0*%
%ADD10C,0.010000*%
%ADD11R,0.001000X0.001000*%
%LNSILK1*%
G90*
G70*
G54D10*
X113Y507D02*
X113Y107D01*
D02*
X113Y107D02*
X513Y107D01*
D02*
X513Y107D02*
X513Y507D01*
D02*
X113Y507D02*
X263Y507D01*
D02*
X363Y507D02*
X513Y507D01*
G54D11*
X0Y866D02*
X623Y866D01*
X0Y865D02*
X623Y865D01*
X0Y864D02*
X623Y864D01*
X0Y863D02*
X623Y863D01*
X0Y862D02*
X623Y862D01*
X0Y861D02*
X623Y861D01*
X0Y860D02*
X623Y860D01*
X0Y859D02*
X623Y859D01*
X0Y858D02*
X7Y858D01*
X616Y858D02*
X623Y858D01*
X0Y857D02*
X7Y857D01*
X616Y857D02*
X623Y857D01*
X0Y856D02*
X7Y856D01*
X616Y856D02*
X623Y856D01*
X0Y855D02*
X7Y855D01*
X616Y855D02*
X623Y855D01*
X0Y854D02*
X7Y854D01*
X616Y854D02*
X623Y854D01*
X0Y853D02*
X7Y853D01*
X616Y853D02*
X623Y853D01*
X0Y852D02*
X7Y852D01*
X616Y852D02*
X623Y852D01*
X0Y851D02*
X7Y851D01*
X616Y851D02*
X623Y851D01*
X0Y850D02*
X7Y850D01*
X616Y850D02*
X623Y850D01*
X0Y849D02*
X7Y849D01*
X616Y849D02*
X623Y849D01*
X0Y848D02*
X7Y848D01*
X616Y848D02*
X623Y848D01*
X0Y847D02*
X7Y847D01*
X616Y847D02*
X623Y847D01*
X0Y846D02*
X7Y846D01*
X616Y846D02*
X623Y846D01*
X0Y845D02*
X7Y845D01*
X616Y845D02*
X623Y845D01*
X0Y844D02*
X7Y844D01*
X616Y844D02*
X623Y844D01*
X0Y843D02*
X7Y843D01*
X616Y843D02*
X623Y843D01*
X0Y842D02*
X7Y842D01*
X616Y842D02*
X623Y842D01*
X0Y841D02*
X7Y841D01*
X257Y841D02*
X296Y841D01*
X315Y841D02*
X350Y841D01*
X373Y841D02*
X401Y841D01*
X616Y841D02*
X623Y841D01*
X0Y840D02*
X7Y840D01*
X257Y840D02*
X296Y840D01*
X315Y840D02*
X352Y840D01*
X373Y840D02*
X405Y840D01*
X616Y840D02*
X623Y840D01*
X0Y839D02*
X7Y839D01*
X257Y839D02*
X296Y839D01*
X315Y839D02*
X353Y839D01*
X373Y839D02*
X406Y839D01*
X616Y839D02*
X623Y839D01*
X0Y838D02*
X7Y838D01*
X257Y838D02*
X296Y838D01*
X315Y838D02*
X354Y838D01*
X373Y838D02*
X408Y838D01*
X616Y838D02*
X623Y838D01*
X0Y837D02*
X7Y837D01*
X257Y837D02*
X296Y837D01*
X315Y837D02*
X354Y837D01*
X373Y837D02*
X409Y837D01*
X616Y837D02*
X623Y837D01*
X0Y836D02*
X7Y836D01*
X257Y836D02*
X296Y836D01*
X315Y836D02*
X353Y836D01*
X373Y836D02*
X409Y836D01*
X616Y836D02*
X623Y836D01*
X0Y835D02*
X7Y835D01*
X257Y835D02*
X296Y835D01*
X315Y835D02*
X353Y835D01*
X373Y835D02*
X410Y835D01*
X616Y835D02*
X623Y835D01*
X0Y834D02*
X7Y834D01*
X257Y834D02*
X296Y834D01*
X315Y834D02*
X352Y834D01*
X373Y834D02*
X411Y834D01*
X616Y834D02*
X623Y834D01*
X0Y833D02*
X7Y833D01*
X257Y833D02*
X264Y833D01*
X272Y833D02*
X280Y833D01*
X288Y833D02*
X296Y833D01*
X315Y833D02*
X322Y833D01*
X373Y833D02*
X380Y833D01*
X400Y833D02*
X411Y833D01*
X616Y833D02*
X623Y833D01*
X0Y832D02*
X7Y832D01*
X257Y832D02*
X264Y832D01*
X273Y832D02*
X280Y832D01*
X289Y832D02*
X296Y832D01*
X315Y832D02*
X322Y832D01*
X373Y832D02*
X380Y832D01*
X403Y832D02*
X411Y832D01*
X616Y832D02*
X623Y832D01*
X0Y831D02*
X7Y831D01*
X257Y831D02*
X264Y831D01*
X273Y831D02*
X280Y831D01*
X289Y831D02*
X296Y831D01*
X315Y831D02*
X322Y831D01*
X373Y831D02*
X380Y831D01*
X404Y831D02*
X411Y831D01*
X616Y831D02*
X623Y831D01*
X0Y830D02*
X7Y830D01*
X257Y830D02*
X264Y830D01*
X273Y830D02*
X280Y830D01*
X289Y830D02*
X296Y830D01*
X315Y830D02*
X322Y830D01*
X373Y830D02*
X380Y830D01*
X404Y830D02*
X412Y830D01*
X616Y830D02*
X623Y830D01*
X0Y829D02*
X7Y829D01*
X257Y829D02*
X264Y829D01*
X273Y829D02*
X280Y829D01*
X289Y829D02*
X296Y829D01*
X315Y829D02*
X322Y829D01*
X373Y829D02*
X380Y829D01*
X404Y829D02*
X412Y829D01*
X616Y829D02*
X623Y829D01*
X0Y828D02*
X7Y828D01*
X257Y828D02*
X263Y828D01*
X273Y828D02*
X280Y828D01*
X289Y828D02*
X295Y828D01*
X315Y828D02*
X322Y828D01*
X373Y828D02*
X380Y828D01*
X404Y828D02*
X412Y828D01*
X616Y828D02*
X623Y828D01*
X0Y827D02*
X7Y827D01*
X258Y827D02*
X262Y827D01*
X273Y827D02*
X280Y827D01*
X290Y827D02*
X294Y827D01*
X315Y827D02*
X322Y827D01*
X373Y827D02*
X380Y827D01*
X404Y827D02*
X412Y827D01*
X616Y827D02*
X623Y827D01*
X0Y826D02*
X7Y826D01*
X273Y826D02*
X280Y826D01*
X315Y826D02*
X322Y826D01*
X373Y826D02*
X380Y826D01*
X404Y826D02*
X412Y826D01*
X616Y826D02*
X623Y826D01*
X0Y825D02*
X7Y825D01*
X273Y825D02*
X280Y825D01*
X315Y825D02*
X322Y825D01*
X373Y825D02*
X380Y825D01*
X404Y825D02*
X412Y825D01*
X616Y825D02*
X623Y825D01*
X0Y824D02*
X7Y824D01*
X273Y824D02*
X280Y824D01*
X315Y824D02*
X322Y824D01*
X373Y824D02*
X380Y824D01*
X404Y824D02*
X412Y824D01*
X616Y824D02*
X623Y824D01*
X0Y823D02*
X7Y823D01*
X273Y823D02*
X280Y823D01*
X315Y823D02*
X322Y823D01*
X373Y823D02*
X380Y823D01*
X404Y823D02*
X412Y823D01*
X616Y823D02*
X623Y823D01*
X0Y822D02*
X7Y822D01*
X273Y822D02*
X280Y822D01*
X315Y822D02*
X322Y822D01*
X373Y822D02*
X380Y822D01*
X404Y822D02*
X412Y822D01*
X616Y822D02*
X623Y822D01*
X0Y821D02*
X7Y821D01*
X273Y821D02*
X280Y821D01*
X315Y821D02*
X322Y821D01*
X373Y821D02*
X380Y821D01*
X404Y821D02*
X412Y821D01*
X616Y821D02*
X623Y821D01*
X0Y820D02*
X7Y820D01*
X273Y820D02*
X280Y820D01*
X315Y820D02*
X322Y820D01*
X373Y820D02*
X380Y820D01*
X404Y820D02*
X412Y820D01*
X616Y820D02*
X623Y820D01*
X0Y819D02*
X7Y819D01*
X273Y819D02*
X280Y819D01*
X315Y819D02*
X322Y819D01*
X373Y819D02*
X380Y819D01*
X404Y819D02*
X412Y819D01*
X616Y819D02*
X623Y819D01*
X0Y818D02*
X7Y818D01*
X273Y818D02*
X280Y818D01*
X315Y818D02*
X322Y818D01*
X373Y818D02*
X380Y818D01*
X404Y818D02*
X412Y818D01*
X616Y818D02*
X623Y818D01*
X0Y817D02*
X7Y817D01*
X273Y817D02*
X280Y817D01*
X315Y817D02*
X322Y817D01*
X373Y817D02*
X380Y817D01*
X404Y817D02*
X412Y817D01*
X616Y817D02*
X623Y817D01*
X0Y816D02*
X7Y816D01*
X273Y816D02*
X280Y816D01*
X315Y816D02*
X322Y816D01*
X373Y816D02*
X380Y816D01*
X404Y816D02*
X412Y816D01*
X616Y816D02*
X623Y816D01*
X0Y815D02*
X7Y815D01*
X273Y815D02*
X280Y815D01*
X315Y815D02*
X322Y815D01*
X373Y815D02*
X380Y815D01*
X404Y815D02*
X412Y815D01*
X616Y815D02*
X623Y815D01*
X0Y814D02*
X7Y814D01*
X273Y814D02*
X280Y814D01*
X315Y814D02*
X322Y814D01*
X373Y814D02*
X380Y814D01*
X404Y814D02*
X412Y814D01*
X616Y814D02*
X623Y814D01*
X0Y813D02*
X7Y813D01*
X273Y813D02*
X280Y813D01*
X315Y813D02*
X336Y813D01*
X373Y813D02*
X380Y813D01*
X404Y813D02*
X411Y813D01*
X616Y813D02*
X623Y813D01*
X0Y812D02*
X7Y812D01*
X273Y812D02*
X280Y812D01*
X315Y812D02*
X337Y812D01*
X373Y812D02*
X380Y812D01*
X404Y812D02*
X411Y812D01*
X616Y812D02*
X623Y812D01*
X0Y811D02*
X7Y811D01*
X273Y811D02*
X280Y811D01*
X315Y811D02*
X337Y811D01*
X373Y811D02*
X380Y811D01*
X402Y811D02*
X411Y811D01*
X616Y811D02*
X623Y811D01*
X0Y810D02*
X7Y810D01*
X273Y810D02*
X280Y810D01*
X315Y810D02*
X338Y810D01*
X373Y810D02*
X411Y810D01*
X616Y810D02*
X623Y810D01*
X0Y809D02*
X7Y809D01*
X273Y809D02*
X280Y809D01*
X315Y809D02*
X338Y809D01*
X373Y809D02*
X410Y809D01*
X616Y809D02*
X623Y809D01*
X0Y808D02*
X7Y808D01*
X273Y808D02*
X280Y808D01*
X315Y808D02*
X337Y808D01*
X373Y808D02*
X410Y808D01*
X616Y808D02*
X623Y808D01*
X0Y807D02*
X7Y807D01*
X273Y807D02*
X280Y807D01*
X315Y807D02*
X337Y807D01*
X373Y807D02*
X409Y807D01*
X616Y807D02*
X623Y807D01*
X0Y806D02*
X7Y806D01*
X273Y806D02*
X280Y806D01*
X315Y806D02*
X335Y806D01*
X373Y806D02*
X408Y806D01*
X616Y806D02*
X623Y806D01*
X0Y805D02*
X7Y805D01*
X273Y805D02*
X280Y805D01*
X315Y805D02*
X322Y805D01*
X373Y805D02*
X407Y805D01*
X616Y805D02*
X623Y805D01*
X0Y804D02*
X7Y804D01*
X273Y804D02*
X280Y804D01*
X315Y804D02*
X322Y804D01*
X373Y804D02*
X406Y804D01*
X616Y804D02*
X623Y804D01*
X0Y803D02*
X7Y803D01*
X273Y803D02*
X280Y803D01*
X315Y803D02*
X322Y803D01*
X373Y803D02*
X403Y803D01*
X616Y803D02*
X623Y803D01*
X0Y802D02*
X7Y802D01*
X273Y802D02*
X280Y802D01*
X315Y802D02*
X322Y802D01*
X373Y802D02*
X380Y802D01*
X616Y802D02*
X623Y802D01*
X0Y801D02*
X7Y801D01*
X273Y801D02*
X280Y801D01*
X315Y801D02*
X322Y801D01*
X373Y801D02*
X380Y801D01*
X616Y801D02*
X623Y801D01*
X0Y800D02*
X7Y800D01*
X273Y800D02*
X280Y800D01*
X315Y800D02*
X322Y800D01*
X373Y800D02*
X380Y800D01*
X616Y800D02*
X623Y800D01*
X0Y799D02*
X7Y799D01*
X273Y799D02*
X280Y799D01*
X315Y799D02*
X322Y799D01*
X373Y799D02*
X380Y799D01*
X616Y799D02*
X623Y799D01*
X0Y798D02*
X7Y798D01*
X273Y798D02*
X280Y798D01*
X315Y798D02*
X322Y798D01*
X373Y798D02*
X380Y798D01*
X616Y798D02*
X623Y798D01*
X0Y797D02*
X7Y797D01*
X273Y797D02*
X280Y797D01*
X315Y797D02*
X322Y797D01*
X373Y797D02*
X380Y797D01*
X616Y797D02*
X623Y797D01*
X0Y796D02*
X7Y796D01*
X273Y796D02*
X280Y796D01*
X315Y796D02*
X322Y796D01*
X373Y796D02*
X380Y796D01*
X616Y796D02*
X623Y796D01*
X0Y795D02*
X7Y795D01*
X273Y795D02*
X280Y795D01*
X315Y795D02*
X322Y795D01*
X373Y795D02*
X380Y795D01*
X616Y795D02*
X623Y795D01*
X0Y794D02*
X7Y794D01*
X273Y794D02*
X280Y794D01*
X315Y794D02*
X322Y794D01*
X373Y794D02*
X380Y794D01*
X616Y794D02*
X623Y794D01*
X0Y793D02*
X7Y793D01*
X273Y793D02*
X280Y793D01*
X315Y793D02*
X322Y793D01*
X373Y793D02*
X380Y793D01*
X616Y793D02*
X623Y793D01*
X0Y792D02*
X7Y792D01*
X273Y792D02*
X280Y792D01*
X315Y792D02*
X322Y792D01*
X373Y792D02*
X380Y792D01*
X616Y792D02*
X623Y792D01*
X0Y791D02*
X7Y791D01*
X273Y791D02*
X280Y791D01*
X315Y791D02*
X322Y791D01*
X373Y791D02*
X380Y791D01*
X616Y791D02*
X623Y791D01*
X0Y790D02*
X7Y790D01*
X273Y790D02*
X280Y790D01*
X315Y790D02*
X322Y790D01*
X373Y790D02*
X380Y790D01*
X616Y790D02*
X623Y790D01*
X0Y789D02*
X7Y789D01*
X273Y789D02*
X280Y789D01*
X315Y789D02*
X322Y789D01*
X373Y789D02*
X380Y789D01*
X616Y789D02*
X623Y789D01*
X0Y788D02*
X7Y788D01*
X273Y788D02*
X280Y788D01*
X315Y788D02*
X322Y788D01*
X373Y788D02*
X380Y788D01*
X616Y788D02*
X623Y788D01*
X0Y787D02*
X7Y787D01*
X273Y787D02*
X280Y787D01*
X315Y787D02*
X322Y787D01*
X373Y787D02*
X380Y787D01*
X616Y787D02*
X623Y787D01*
X0Y786D02*
X7Y786D01*
X273Y786D02*
X280Y786D01*
X315Y786D02*
X351Y786D01*
X373Y786D02*
X380Y786D01*
X616Y786D02*
X623Y786D01*
X0Y785D02*
X7Y785D01*
X273Y785D02*
X280Y785D01*
X315Y785D02*
X353Y785D01*
X373Y785D02*
X380Y785D01*
X616Y785D02*
X623Y785D01*
X0Y784D02*
X7Y784D01*
X273Y784D02*
X280Y784D01*
X315Y784D02*
X353Y784D01*
X373Y784D02*
X380Y784D01*
X616Y784D02*
X623Y784D01*
X0Y783D02*
X7Y783D01*
X273Y783D02*
X280Y783D01*
X315Y783D02*
X354Y783D01*
X373Y783D02*
X380Y783D01*
X616Y783D02*
X623Y783D01*
X0Y782D02*
X7Y782D01*
X273Y782D02*
X280Y782D01*
X315Y782D02*
X354Y782D01*
X373Y782D02*
X380Y782D01*
X616Y782D02*
X623Y782D01*
X0Y781D02*
X7Y781D01*
X273Y781D02*
X279Y781D01*
X315Y781D02*
X353Y781D01*
X373Y781D02*
X379Y781D01*
X616Y781D02*
X623Y781D01*
X0Y780D02*
X7Y780D01*
X274Y780D02*
X279Y780D01*
X315Y780D02*
X353Y780D01*
X373Y780D02*
X379Y780D01*
X616Y780D02*
X623Y780D01*
X0Y779D02*
X7Y779D01*
X275Y779D02*
X278Y779D01*
X315Y779D02*
X352Y779D01*
X375Y779D02*
X378Y779D01*
X616Y779D02*
X623Y779D01*
X0Y778D02*
X7Y778D01*
X616Y778D02*
X623Y778D01*
X0Y777D02*
X7Y777D01*
X616Y777D02*
X623Y777D01*
X0Y776D02*
X7Y776D01*
X616Y776D02*
X623Y776D01*
X0Y775D02*
X7Y775D01*
X616Y775D02*
X623Y775D01*
X0Y774D02*
X7Y774D01*
X616Y774D02*
X623Y774D01*
X0Y773D02*
X7Y773D01*
X616Y773D02*
X623Y773D01*
X0Y772D02*
X7Y772D01*
X616Y772D02*
X623Y772D01*
X0Y771D02*
X7Y771D01*
X616Y771D02*
X623Y771D01*
X0Y770D02*
X7Y770D01*
X616Y770D02*
X623Y770D01*
X0Y769D02*
X7Y769D01*
X616Y769D02*
X623Y769D01*
X0Y768D02*
X7Y768D01*
X616Y768D02*
X623Y768D01*
X0Y767D02*
X7Y767D01*
X616Y767D02*
X623Y767D01*
X0Y766D02*
X7Y766D01*
X616Y766D02*
X623Y766D01*
X0Y765D02*
X7Y765D01*
X616Y765D02*
X623Y765D01*
X0Y764D02*
X7Y764D01*
X616Y764D02*
X623Y764D01*
X0Y763D02*
X7Y763D01*
X616Y763D02*
X623Y763D01*
X0Y762D02*
X7Y762D01*
X616Y762D02*
X623Y762D01*
X0Y761D02*
X7Y761D01*
X616Y761D02*
X623Y761D01*
X0Y760D02*
X7Y760D01*
X616Y760D02*
X623Y760D01*
X0Y759D02*
X7Y759D01*
X616Y759D02*
X623Y759D01*
X0Y758D02*
X7Y758D01*
X616Y758D02*
X623Y758D01*
X0Y757D02*
X7Y757D01*
X616Y757D02*
X623Y757D01*
X0Y756D02*
X7Y756D01*
X616Y756D02*
X623Y756D01*
X0Y755D02*
X7Y755D01*
X616Y755D02*
X623Y755D01*
X0Y754D02*
X7Y754D01*
X616Y754D02*
X623Y754D01*
X0Y753D02*
X7Y753D01*
X616Y753D02*
X623Y753D01*
X0Y752D02*
X7Y752D01*
X616Y752D02*
X623Y752D01*
X0Y751D02*
X7Y751D01*
X616Y751D02*
X623Y751D01*
X0Y750D02*
X7Y750D01*
X616Y750D02*
X623Y750D01*
X0Y749D02*
X7Y749D01*
X616Y749D02*
X623Y749D01*
X0Y748D02*
X7Y748D01*
X616Y748D02*
X623Y748D01*
X0Y747D02*
X7Y747D01*
X616Y747D02*
X623Y747D01*
X0Y746D02*
X7Y746D01*
X616Y746D02*
X623Y746D01*
X0Y745D02*
X7Y745D01*
X616Y745D02*
X623Y745D01*
X0Y744D02*
X7Y744D01*
X616Y744D02*
X623Y744D01*
X0Y743D02*
X7Y743D01*
X616Y743D02*
X623Y743D01*
X0Y742D02*
X7Y742D01*
X616Y742D02*
X623Y742D01*
X0Y741D02*
X7Y741D01*
X616Y741D02*
X623Y741D01*
X0Y740D02*
X7Y740D01*
X616Y740D02*
X623Y740D01*
X0Y739D02*
X7Y739D01*
X616Y739D02*
X623Y739D01*
X0Y738D02*
X7Y738D01*
X616Y738D02*
X623Y738D01*
X0Y737D02*
X7Y737D01*
X616Y737D02*
X623Y737D01*
X0Y736D02*
X7Y736D01*
X616Y736D02*
X623Y736D01*
X0Y735D02*
X7Y735D01*
X616Y735D02*
X623Y735D01*
X0Y734D02*
X7Y734D01*
X616Y734D02*
X623Y734D01*
X0Y733D02*
X7Y733D01*
X616Y733D02*
X623Y733D01*
X0Y732D02*
X7Y732D01*
X616Y732D02*
X623Y732D01*
X0Y731D02*
X7Y731D01*
X616Y731D02*
X623Y731D01*
X0Y730D02*
X7Y730D01*
X616Y730D02*
X623Y730D01*
X0Y729D02*
X7Y729D01*
X616Y729D02*
X623Y729D01*
X0Y728D02*
X7Y728D01*
X616Y728D02*
X623Y728D01*
X0Y727D02*
X7Y727D01*
X616Y727D02*
X623Y727D01*
X0Y726D02*
X7Y726D01*
X616Y726D02*
X623Y726D01*
X0Y725D02*
X7Y725D01*
X616Y725D02*
X623Y725D01*
X0Y724D02*
X7Y724D01*
X616Y724D02*
X623Y724D01*
X0Y723D02*
X7Y723D01*
X616Y723D02*
X623Y723D01*
X0Y722D02*
X7Y722D01*
X616Y722D02*
X623Y722D01*
X0Y721D02*
X7Y721D01*
X616Y721D02*
X623Y721D01*
X0Y720D02*
X7Y720D01*
X616Y720D02*
X623Y720D01*
X0Y719D02*
X7Y719D01*
X616Y719D02*
X623Y719D01*
X0Y718D02*
X7Y718D01*
X616Y718D02*
X623Y718D01*
X0Y717D02*
X7Y717D01*
X616Y717D02*
X623Y717D01*
X0Y716D02*
X7Y716D01*
X616Y716D02*
X623Y716D01*
X0Y715D02*
X7Y715D01*
X616Y715D02*
X623Y715D01*
X0Y714D02*
X7Y714D01*
X616Y714D02*
X623Y714D01*
X0Y713D02*
X7Y713D01*
X616Y713D02*
X623Y713D01*
X0Y712D02*
X7Y712D01*
X616Y712D02*
X623Y712D01*
X0Y711D02*
X7Y711D01*
X616Y711D02*
X623Y711D01*
X0Y710D02*
X7Y710D01*
X616Y710D02*
X623Y710D01*
X0Y709D02*
X7Y709D01*
X616Y709D02*
X623Y709D01*
X0Y708D02*
X7Y708D01*
X616Y708D02*
X623Y708D01*
X0Y707D02*
X7Y707D01*
X616Y707D02*
X623Y707D01*
X0Y706D02*
X7Y706D01*
X616Y706D02*
X623Y706D01*
X0Y705D02*
X7Y705D01*
X616Y705D02*
X623Y705D01*
X0Y704D02*
X7Y704D01*
X616Y704D02*
X623Y704D01*
X0Y703D02*
X7Y703D01*
X616Y703D02*
X623Y703D01*
X0Y702D02*
X7Y702D01*
X616Y702D02*
X623Y702D01*
X0Y701D02*
X7Y701D01*
X616Y701D02*
X623Y701D01*
X0Y700D02*
X7Y700D01*
X616Y700D02*
X623Y700D01*
X0Y699D02*
X7Y699D01*
X616Y699D02*
X623Y699D01*
X0Y698D02*
X7Y698D01*
X616Y698D02*
X623Y698D01*
X0Y697D02*
X7Y697D01*
X616Y697D02*
X623Y697D01*
X0Y696D02*
X7Y696D01*
X616Y696D02*
X623Y696D01*
X0Y695D02*
X7Y695D01*
X616Y695D02*
X623Y695D01*
X0Y694D02*
X7Y694D01*
X616Y694D02*
X623Y694D01*
X0Y693D02*
X7Y693D01*
X616Y693D02*
X623Y693D01*
X0Y692D02*
X7Y692D01*
X616Y692D02*
X623Y692D01*
X0Y691D02*
X7Y691D01*
X616Y691D02*
X623Y691D01*
X0Y690D02*
X7Y690D01*
X616Y690D02*
X623Y690D01*
X0Y689D02*
X7Y689D01*
X616Y689D02*
X623Y689D01*
X0Y688D02*
X7Y688D01*
X616Y688D02*
X623Y688D01*
X0Y687D02*
X7Y687D01*
X616Y687D02*
X623Y687D01*
X0Y686D02*
X7Y686D01*
X616Y686D02*
X623Y686D01*
X0Y685D02*
X7Y685D01*
X616Y685D02*
X623Y685D01*
X0Y684D02*
X7Y684D01*
X616Y684D02*
X623Y684D01*
X0Y683D02*
X7Y683D01*
X616Y683D02*
X623Y683D01*
X0Y682D02*
X7Y682D01*
X616Y682D02*
X623Y682D01*
X0Y681D02*
X7Y681D01*
X616Y681D02*
X623Y681D01*
X0Y680D02*
X7Y680D01*
X616Y680D02*
X623Y680D01*
X0Y679D02*
X7Y679D01*
X616Y679D02*
X623Y679D01*
X0Y678D02*
X7Y678D01*
X616Y678D02*
X623Y678D01*
X0Y677D02*
X7Y677D01*
X616Y677D02*
X623Y677D01*
X0Y676D02*
X7Y676D01*
X616Y676D02*
X623Y676D01*
X0Y675D02*
X7Y675D01*
X616Y675D02*
X623Y675D01*
X0Y674D02*
X7Y674D01*
X616Y674D02*
X623Y674D01*
X0Y673D02*
X7Y673D01*
X616Y673D02*
X623Y673D01*
X0Y672D02*
X7Y672D01*
X616Y672D02*
X623Y672D01*
X0Y671D02*
X7Y671D01*
X616Y671D02*
X623Y671D01*
X0Y670D02*
X7Y670D01*
X616Y670D02*
X623Y670D01*
X0Y669D02*
X7Y669D01*
X616Y669D02*
X623Y669D01*
X0Y668D02*
X7Y668D01*
X616Y668D02*
X623Y668D01*
X0Y667D02*
X7Y667D01*
X304Y667D02*
X420Y667D01*
X616Y667D02*
X623Y667D01*
X0Y666D02*
X7Y666D01*
X304Y666D02*
X420Y666D01*
X616Y666D02*
X623Y666D01*
X0Y665D02*
X7Y665D01*
X304Y665D02*
X420Y665D01*
X616Y665D02*
X623Y665D01*
X0Y664D02*
X7Y664D01*
X304Y664D02*
X420Y664D01*
X616Y664D02*
X623Y664D01*
X0Y663D02*
X7Y663D01*
X305Y663D02*
X419Y663D01*
X616Y663D02*
X623Y663D01*
X0Y662D02*
X7Y662D01*
X305Y662D02*
X419Y662D01*
X616Y662D02*
X623Y662D01*
X0Y661D02*
X7Y661D01*
X305Y661D02*
X419Y661D01*
X616Y661D02*
X623Y661D01*
X0Y660D02*
X7Y660D01*
X305Y660D02*
X419Y660D01*
X616Y660D02*
X623Y660D01*
X0Y659D02*
X7Y659D01*
X305Y659D02*
X419Y659D01*
X616Y659D02*
X623Y659D01*
X0Y658D02*
X7Y658D01*
X305Y658D02*
X419Y658D01*
X616Y658D02*
X623Y658D01*
X0Y657D02*
X7Y657D01*
X305Y657D02*
X419Y657D01*
X616Y657D02*
X623Y657D01*
X0Y656D02*
X7Y656D01*
X305Y656D02*
X419Y656D01*
X616Y656D02*
X623Y656D01*
X0Y655D02*
X7Y655D01*
X305Y655D02*
X419Y655D01*
X616Y655D02*
X623Y655D01*
X0Y654D02*
X7Y654D01*
X305Y654D02*
X419Y654D01*
X616Y654D02*
X623Y654D01*
X0Y653D02*
X7Y653D01*
X305Y653D02*
X419Y653D01*
X616Y653D02*
X623Y653D01*
X0Y652D02*
X7Y652D01*
X305Y652D02*
X419Y652D01*
X616Y652D02*
X623Y652D01*
X0Y651D02*
X7Y651D01*
X305Y651D02*
X419Y651D01*
X616Y651D02*
X623Y651D01*
X0Y650D02*
X7Y650D01*
X304Y650D02*
X420Y650D01*
X616Y650D02*
X623Y650D01*
X0Y649D02*
X7Y649D01*
X304Y649D02*
X420Y649D01*
X616Y649D02*
X623Y649D01*
X0Y648D02*
X7Y648D01*
X304Y648D02*
X420Y648D01*
X616Y648D02*
X623Y648D01*
X0Y647D02*
X7Y647D01*
X304Y647D02*
X420Y647D01*
X616Y647D02*
X623Y647D01*
X0Y646D02*
X7Y646D01*
X616Y646D02*
X623Y646D01*
X0Y645D02*
X7Y645D01*
X616Y645D02*
X623Y645D01*
X0Y644D02*
X7Y644D01*
X616Y644D02*
X623Y644D01*
X0Y643D02*
X7Y643D01*
X616Y643D02*
X623Y643D01*
X0Y642D02*
X7Y642D01*
X616Y642D02*
X623Y642D01*
X0Y641D02*
X7Y641D01*
X616Y641D02*
X623Y641D01*
X0Y640D02*
X7Y640D01*
X616Y640D02*
X623Y640D01*
X0Y639D02*
X7Y639D01*
X616Y639D02*
X623Y639D01*
X0Y638D02*
X7Y638D01*
X616Y638D02*
X623Y638D01*
X0Y637D02*
X7Y637D01*
X616Y637D02*
X623Y637D01*
X0Y636D02*
X7Y636D01*
X616Y636D02*
X623Y636D01*
X0Y635D02*
X7Y635D01*
X616Y635D02*
X623Y635D01*
X0Y634D02*
X7Y634D01*
X616Y634D02*
X623Y634D01*
X0Y633D02*
X7Y633D01*
X616Y633D02*
X623Y633D01*
X0Y632D02*
X7Y632D01*
X616Y632D02*
X623Y632D01*
X0Y631D02*
X7Y631D01*
X616Y631D02*
X623Y631D01*
X0Y630D02*
X7Y630D01*
X616Y630D02*
X623Y630D01*
X0Y629D02*
X7Y629D01*
X616Y629D02*
X623Y629D01*
X0Y628D02*
X7Y628D01*
X616Y628D02*
X623Y628D01*
X0Y627D02*
X7Y627D01*
X616Y627D02*
X623Y627D01*
X0Y626D02*
X7Y626D01*
X616Y626D02*
X623Y626D01*
X0Y625D02*
X7Y625D01*
X616Y625D02*
X623Y625D01*
X0Y624D02*
X7Y624D01*
X616Y624D02*
X623Y624D01*
X0Y623D02*
X7Y623D01*
X616Y623D02*
X623Y623D01*
X0Y622D02*
X7Y622D01*
X616Y622D02*
X623Y622D01*
X0Y621D02*
X7Y621D01*
X616Y621D02*
X623Y621D01*
X0Y620D02*
X7Y620D01*
X616Y620D02*
X623Y620D01*
X0Y619D02*
X7Y619D01*
X616Y619D02*
X623Y619D01*
X0Y618D02*
X7Y618D01*
X616Y618D02*
X623Y618D01*
X0Y617D02*
X7Y617D01*
X616Y617D02*
X623Y617D01*
X0Y616D02*
X7Y616D01*
X616Y616D02*
X623Y616D01*
X0Y615D02*
X7Y615D01*
X616Y615D02*
X623Y615D01*
X0Y614D02*
X7Y614D01*
X616Y614D02*
X623Y614D01*
X0Y613D02*
X7Y613D01*
X616Y613D02*
X623Y613D01*
X0Y612D02*
X7Y612D01*
X616Y612D02*
X623Y612D01*
X0Y611D02*
X7Y611D01*
X616Y611D02*
X623Y611D01*
X0Y610D02*
X7Y610D01*
X616Y610D02*
X623Y610D01*
X0Y609D02*
X7Y609D01*
X616Y609D02*
X623Y609D01*
X0Y608D02*
X7Y608D01*
X616Y608D02*
X623Y608D01*
X0Y607D02*
X7Y607D01*
X616Y607D02*
X623Y607D01*
X0Y606D02*
X7Y606D01*
X616Y606D02*
X623Y606D01*
X0Y605D02*
X7Y605D01*
X616Y605D02*
X623Y605D01*
X0Y604D02*
X7Y604D01*
X616Y604D02*
X623Y604D01*
X0Y603D02*
X7Y603D01*
X616Y603D02*
X623Y603D01*
X0Y602D02*
X7Y602D01*
X616Y602D02*
X623Y602D01*
X0Y601D02*
X7Y601D01*
X616Y601D02*
X623Y601D01*
X0Y600D02*
X7Y600D01*
X616Y600D02*
X623Y600D01*
X0Y599D02*
X7Y599D01*
X616Y599D02*
X623Y599D01*
X0Y598D02*
X7Y598D01*
X616Y598D02*
X623Y598D01*
X0Y597D02*
X7Y597D01*
X616Y597D02*
X623Y597D01*
X0Y596D02*
X7Y596D01*
X616Y596D02*
X623Y596D01*
X0Y595D02*
X7Y595D01*
X616Y595D02*
X623Y595D01*
X0Y594D02*
X7Y594D01*
X616Y594D02*
X623Y594D01*
X0Y593D02*
X7Y593D01*
X616Y593D02*
X623Y593D01*
X0Y592D02*
X7Y592D01*
X616Y592D02*
X623Y592D01*
X0Y591D02*
X7Y591D01*
X616Y591D02*
X623Y591D01*
X0Y590D02*
X7Y590D01*
X616Y590D02*
X623Y590D01*
X0Y589D02*
X7Y589D01*
X616Y589D02*
X623Y589D01*
X0Y588D02*
X7Y588D01*
X616Y588D02*
X623Y588D01*
X0Y587D02*
X7Y587D01*
X616Y587D02*
X623Y587D01*
X0Y586D02*
X7Y586D01*
X616Y586D02*
X623Y586D01*
X0Y585D02*
X7Y585D01*
X616Y585D02*
X623Y585D01*
X0Y584D02*
X7Y584D01*
X616Y584D02*
X623Y584D01*
X0Y583D02*
X7Y583D01*
X616Y583D02*
X623Y583D01*
X0Y582D02*
X7Y582D01*
X616Y582D02*
X623Y582D01*
X0Y581D02*
X7Y581D01*
X616Y581D02*
X623Y581D01*
X0Y580D02*
X7Y580D01*
X616Y580D02*
X623Y580D01*
X0Y579D02*
X7Y579D01*
X616Y579D02*
X623Y579D01*
X0Y578D02*
X7Y578D01*
X616Y578D02*
X623Y578D01*
X0Y577D02*
X7Y577D01*
X616Y577D02*
X623Y577D01*
X0Y576D02*
X7Y576D01*
X616Y576D02*
X623Y576D01*
X0Y575D02*
X7Y575D01*
X616Y575D02*
X623Y575D01*
X0Y574D02*
X7Y574D01*
X616Y574D02*
X623Y574D01*
X0Y573D02*
X7Y573D01*
X616Y573D02*
X623Y573D01*
X0Y572D02*
X7Y572D01*
X616Y572D02*
X623Y572D01*
X0Y571D02*
X7Y571D01*
X616Y571D02*
X623Y571D01*
X0Y570D02*
X7Y570D01*
X616Y570D02*
X623Y570D01*
X0Y569D02*
X7Y569D01*
X616Y569D02*
X623Y569D01*
X0Y568D02*
X7Y568D01*
X616Y568D02*
X623Y568D01*
X0Y567D02*
X7Y567D01*
X204Y567D02*
X420Y567D01*
X616Y567D02*
X623Y567D01*
X0Y566D02*
X7Y566D01*
X204Y566D02*
X420Y566D01*
X616Y566D02*
X623Y566D01*
X0Y565D02*
X7Y565D01*
X204Y565D02*
X420Y565D01*
X616Y565D02*
X623Y565D01*
X0Y564D02*
X7Y564D01*
X205Y564D02*
X420Y564D01*
X616Y564D02*
X623Y564D01*
X0Y563D02*
X7Y563D01*
X205Y563D02*
X419Y563D01*
X616Y563D02*
X623Y563D01*
X0Y562D02*
X7Y562D01*
X205Y562D02*
X419Y562D01*
X616Y562D02*
X623Y562D01*
X0Y561D02*
X7Y561D01*
X205Y561D02*
X419Y561D01*
X616Y561D02*
X623Y561D01*
X0Y560D02*
X7Y560D01*
X205Y560D02*
X419Y560D01*
X616Y560D02*
X623Y560D01*
X0Y559D02*
X7Y559D01*
X205Y559D02*
X419Y559D01*
X616Y559D02*
X623Y559D01*
X0Y558D02*
X7Y558D01*
X205Y558D02*
X419Y558D01*
X616Y558D02*
X623Y558D01*
X0Y557D02*
X7Y557D01*
X205Y557D02*
X419Y557D01*
X616Y557D02*
X623Y557D01*
X0Y556D02*
X7Y556D01*
X205Y556D02*
X419Y556D01*
X616Y556D02*
X623Y556D01*
X0Y555D02*
X7Y555D01*
X205Y555D02*
X419Y555D01*
X616Y555D02*
X623Y555D01*
X0Y554D02*
X7Y554D01*
X205Y554D02*
X419Y554D01*
X616Y554D02*
X623Y554D01*
X0Y553D02*
X7Y553D01*
X205Y553D02*
X419Y553D01*
X616Y553D02*
X623Y553D01*
X0Y552D02*
X7Y552D01*
X205Y552D02*
X419Y552D01*
X616Y552D02*
X623Y552D01*
X0Y551D02*
X7Y551D01*
X205Y551D02*
X419Y551D01*
X616Y551D02*
X623Y551D01*
X0Y550D02*
X7Y550D01*
X205Y550D02*
X420Y550D01*
X616Y550D02*
X623Y550D01*
X0Y549D02*
X7Y549D01*
X204Y549D02*
X420Y549D01*
X616Y549D02*
X623Y549D01*
X0Y548D02*
X7Y548D01*
X204Y548D02*
X420Y548D01*
X616Y548D02*
X623Y548D01*
X0Y547D02*
X7Y547D01*
X204Y547D02*
X420Y547D01*
X616Y547D02*
X623Y547D01*
X0Y546D02*
X7Y546D01*
X616Y546D02*
X623Y546D01*
X0Y545D02*
X7Y545D01*
X616Y545D02*
X623Y545D01*
X0Y544D02*
X7Y544D01*
X616Y544D02*
X623Y544D01*
X0Y543D02*
X7Y543D01*
X616Y543D02*
X623Y543D01*
X0Y542D02*
X7Y542D01*
X616Y542D02*
X623Y542D01*
X0Y541D02*
X7Y541D01*
X616Y541D02*
X623Y541D01*
X0Y540D02*
X7Y540D01*
X616Y540D02*
X623Y540D01*
X0Y539D02*
X7Y539D01*
X616Y539D02*
X623Y539D01*
X0Y538D02*
X7Y538D01*
X616Y538D02*
X623Y538D01*
X0Y537D02*
X7Y537D01*
X616Y537D02*
X623Y537D01*
X0Y536D02*
X7Y536D01*
X616Y536D02*
X623Y536D01*
X0Y535D02*
X7Y535D01*
X616Y535D02*
X623Y535D01*
X0Y534D02*
X7Y534D01*
X616Y534D02*
X623Y534D01*
X0Y533D02*
X7Y533D01*
X616Y533D02*
X623Y533D01*
X0Y532D02*
X7Y532D01*
X616Y532D02*
X623Y532D01*
X0Y531D02*
X7Y531D01*
X616Y531D02*
X623Y531D01*
X0Y530D02*
X7Y530D01*
X616Y530D02*
X623Y530D01*
X0Y529D02*
X7Y529D01*
X616Y529D02*
X623Y529D01*
X0Y528D02*
X7Y528D01*
X616Y528D02*
X623Y528D01*
X0Y527D02*
X7Y527D01*
X616Y527D02*
X623Y527D01*
X0Y526D02*
X7Y526D01*
X616Y526D02*
X623Y526D01*
X0Y525D02*
X7Y525D01*
X616Y525D02*
X623Y525D01*
X0Y524D02*
X7Y524D01*
X616Y524D02*
X623Y524D01*
X0Y523D02*
X7Y523D01*
X616Y523D02*
X623Y523D01*
X0Y522D02*
X7Y522D01*
X616Y522D02*
X623Y522D01*
X0Y521D02*
X7Y521D01*
X616Y521D02*
X623Y521D01*
X0Y520D02*
X7Y520D01*
X616Y520D02*
X623Y520D01*
X0Y519D02*
X7Y519D01*
X616Y519D02*
X623Y519D01*
X0Y518D02*
X7Y518D01*
X616Y518D02*
X623Y518D01*
X0Y517D02*
X7Y517D01*
X616Y517D02*
X623Y517D01*
X0Y516D02*
X7Y516D01*
X616Y516D02*
X623Y516D01*
X0Y515D02*
X7Y515D01*
X616Y515D02*
X623Y515D01*
X0Y514D02*
X7Y514D01*
X616Y514D02*
X623Y514D01*
X0Y513D02*
X7Y513D01*
X616Y513D02*
X623Y513D01*
X0Y512D02*
X7Y512D01*
X616Y512D02*
X623Y512D01*
X0Y511D02*
X7Y511D01*
X616Y511D02*
X623Y511D01*
X0Y510D02*
X7Y510D01*
X616Y510D02*
X623Y510D01*
X0Y509D02*
X7Y509D01*
X616Y509D02*
X623Y509D01*
X0Y508D02*
X7Y508D01*
X616Y508D02*
X623Y508D01*
X0Y507D02*
X7Y507D01*
X616Y507D02*
X623Y507D01*
X0Y506D02*
X7Y506D01*
X616Y506D02*
X623Y506D01*
X0Y505D02*
X7Y505D01*
X616Y505D02*
X623Y505D01*
X0Y504D02*
X7Y504D01*
X616Y504D02*
X623Y504D01*
X0Y503D02*
X7Y503D01*
X616Y503D02*
X623Y503D01*
X0Y502D02*
X7Y502D01*
X616Y502D02*
X623Y502D01*
X0Y501D02*
X7Y501D01*
X616Y501D02*
X623Y501D01*
X0Y500D02*
X7Y500D01*
X616Y500D02*
X623Y500D01*
X0Y499D02*
X7Y499D01*
X616Y499D02*
X623Y499D01*
X0Y498D02*
X7Y498D01*
X616Y498D02*
X623Y498D01*
X0Y497D02*
X7Y497D01*
X616Y497D02*
X623Y497D01*
X0Y496D02*
X7Y496D01*
X616Y496D02*
X623Y496D01*
X0Y495D02*
X7Y495D01*
X616Y495D02*
X623Y495D01*
X0Y494D02*
X7Y494D01*
X616Y494D02*
X623Y494D01*
X0Y493D02*
X7Y493D01*
X616Y493D02*
X623Y493D01*
X0Y492D02*
X7Y492D01*
X616Y492D02*
X623Y492D01*
X0Y491D02*
X7Y491D01*
X616Y491D02*
X623Y491D01*
X0Y490D02*
X7Y490D01*
X616Y490D02*
X623Y490D01*
X0Y489D02*
X7Y489D01*
X616Y489D02*
X623Y489D01*
X0Y488D02*
X7Y488D01*
X616Y488D02*
X623Y488D01*
X0Y487D02*
X7Y487D01*
X616Y487D02*
X623Y487D01*
X0Y486D02*
X7Y486D01*
X616Y486D02*
X623Y486D01*
X0Y485D02*
X7Y485D01*
X616Y485D02*
X623Y485D01*
X0Y484D02*
X7Y484D01*
X616Y484D02*
X623Y484D01*
X0Y483D02*
X7Y483D01*
X616Y483D02*
X623Y483D01*
X0Y482D02*
X7Y482D01*
X616Y482D02*
X623Y482D01*
X0Y481D02*
X7Y481D01*
X616Y481D02*
X623Y481D01*
X0Y480D02*
X7Y480D01*
X616Y480D02*
X623Y480D01*
X0Y479D02*
X7Y479D01*
X616Y479D02*
X623Y479D01*
X0Y478D02*
X7Y478D01*
X616Y478D02*
X623Y478D01*
X0Y477D02*
X7Y477D01*
X616Y477D02*
X623Y477D01*
X0Y476D02*
X7Y476D01*
X616Y476D02*
X623Y476D01*
X0Y475D02*
X7Y475D01*
X616Y475D02*
X623Y475D01*
X0Y474D02*
X7Y474D01*
X616Y474D02*
X623Y474D01*
X0Y473D02*
X7Y473D01*
X616Y473D02*
X623Y473D01*
X0Y472D02*
X7Y472D01*
X616Y472D02*
X623Y472D01*
X0Y471D02*
X7Y471D01*
X616Y471D02*
X623Y471D01*
X0Y470D02*
X7Y470D01*
X616Y470D02*
X623Y470D01*
X0Y469D02*
X7Y469D01*
X616Y469D02*
X623Y469D01*
X0Y468D02*
X7Y468D01*
X616Y468D02*
X623Y468D01*
X0Y467D02*
X7Y467D01*
X616Y467D02*
X623Y467D01*
X0Y466D02*
X7Y466D01*
X616Y466D02*
X623Y466D01*
X0Y465D02*
X7Y465D01*
X616Y465D02*
X623Y465D01*
X0Y464D02*
X7Y464D01*
X616Y464D02*
X623Y464D01*
X0Y463D02*
X7Y463D01*
X616Y463D02*
X623Y463D01*
X0Y462D02*
X7Y462D01*
X616Y462D02*
X623Y462D01*
X0Y461D02*
X7Y461D01*
X616Y461D02*
X623Y461D01*
X0Y460D02*
X7Y460D01*
X616Y460D02*
X623Y460D01*
X0Y459D02*
X7Y459D01*
X616Y459D02*
X623Y459D01*
X0Y458D02*
X7Y458D01*
X616Y458D02*
X623Y458D01*
X0Y457D02*
X7Y457D01*
X616Y457D02*
X623Y457D01*
X0Y456D02*
X7Y456D01*
X616Y456D02*
X623Y456D01*
X0Y455D02*
X7Y455D01*
X616Y455D02*
X623Y455D01*
X0Y454D02*
X7Y454D01*
X616Y454D02*
X623Y454D01*
X0Y453D02*
X7Y453D01*
X616Y453D02*
X623Y453D01*
X0Y452D02*
X7Y452D01*
X616Y452D02*
X623Y452D01*
X0Y451D02*
X7Y451D01*
X616Y451D02*
X623Y451D01*
X0Y450D02*
X7Y450D01*
X616Y450D02*
X623Y450D01*
X0Y449D02*
X7Y449D01*
X616Y449D02*
X623Y449D01*
X0Y448D02*
X7Y448D01*
X616Y448D02*
X623Y448D01*
X0Y447D02*
X7Y447D01*
X616Y447D02*
X623Y447D01*
X0Y446D02*
X7Y446D01*
X616Y446D02*
X623Y446D01*
X0Y445D02*
X7Y445D01*
X616Y445D02*
X623Y445D01*
X0Y444D02*
X7Y444D01*
X616Y444D02*
X623Y444D01*
X0Y443D02*
X7Y443D01*
X616Y443D02*
X623Y443D01*
X0Y442D02*
X7Y442D01*
X616Y442D02*
X623Y442D01*
X0Y441D02*
X7Y441D01*
X616Y441D02*
X623Y441D01*
X0Y440D02*
X7Y440D01*
X616Y440D02*
X623Y440D01*
X0Y439D02*
X7Y439D01*
X616Y439D02*
X623Y439D01*
X0Y438D02*
X7Y438D01*
X616Y438D02*
X623Y438D01*
X0Y437D02*
X7Y437D01*
X616Y437D02*
X623Y437D01*
X0Y436D02*
X7Y436D01*
X616Y436D02*
X623Y436D01*
X0Y435D02*
X7Y435D01*
X616Y435D02*
X623Y435D01*
X0Y434D02*
X7Y434D01*
X616Y434D02*
X623Y434D01*
X0Y433D02*
X7Y433D01*
X616Y433D02*
X623Y433D01*
X0Y432D02*
X7Y432D01*
X616Y432D02*
X623Y432D01*
X0Y431D02*
X7Y431D01*
X616Y431D02*
X623Y431D01*
X0Y430D02*
X7Y430D01*
X616Y430D02*
X623Y430D01*
X0Y429D02*
X7Y429D01*
X616Y429D02*
X623Y429D01*
X0Y428D02*
X7Y428D01*
X616Y428D02*
X623Y428D01*
X0Y427D02*
X7Y427D01*
X616Y427D02*
X623Y427D01*
X0Y426D02*
X7Y426D01*
X616Y426D02*
X623Y426D01*
X0Y425D02*
X7Y425D01*
X616Y425D02*
X623Y425D01*
X0Y424D02*
X7Y424D01*
X616Y424D02*
X623Y424D01*
X0Y423D02*
X7Y423D01*
X616Y423D02*
X623Y423D01*
X0Y422D02*
X7Y422D01*
X616Y422D02*
X623Y422D01*
X0Y421D02*
X7Y421D01*
X616Y421D02*
X623Y421D01*
X0Y420D02*
X7Y420D01*
X616Y420D02*
X623Y420D01*
X0Y419D02*
X7Y419D01*
X616Y419D02*
X623Y419D01*
X0Y418D02*
X7Y418D01*
X616Y418D02*
X623Y418D01*
X0Y417D02*
X7Y417D01*
X616Y417D02*
X623Y417D01*
X0Y416D02*
X7Y416D01*
X616Y416D02*
X623Y416D01*
X0Y415D02*
X7Y415D01*
X616Y415D02*
X623Y415D01*
X0Y414D02*
X7Y414D01*
X616Y414D02*
X623Y414D01*
X0Y413D02*
X7Y413D01*
X616Y413D02*
X623Y413D01*
X0Y412D02*
X7Y412D01*
X616Y412D02*
X623Y412D01*
X0Y411D02*
X7Y411D01*
X616Y411D02*
X623Y411D01*
X0Y410D02*
X7Y410D01*
X616Y410D02*
X623Y410D01*
X0Y409D02*
X7Y409D01*
X616Y409D02*
X623Y409D01*
X0Y408D02*
X7Y408D01*
X616Y408D02*
X623Y408D01*
X0Y407D02*
X7Y407D01*
X616Y407D02*
X623Y407D01*
X0Y406D02*
X7Y406D01*
X616Y406D02*
X623Y406D01*
X0Y405D02*
X7Y405D01*
X616Y405D02*
X623Y405D01*
X0Y404D02*
X7Y404D01*
X616Y404D02*
X623Y404D01*
X0Y403D02*
X7Y403D01*
X616Y403D02*
X623Y403D01*
X0Y402D02*
X7Y402D01*
X616Y402D02*
X623Y402D01*
X0Y401D02*
X7Y401D01*
X616Y401D02*
X623Y401D01*
X0Y400D02*
X7Y400D01*
X616Y400D02*
X623Y400D01*
X0Y399D02*
X7Y399D01*
X616Y399D02*
X623Y399D01*
X0Y398D02*
X7Y398D01*
X616Y398D02*
X623Y398D01*
X0Y397D02*
X7Y397D01*
X616Y397D02*
X623Y397D01*
X0Y396D02*
X7Y396D01*
X616Y396D02*
X623Y396D01*
X0Y395D02*
X7Y395D01*
X616Y395D02*
X623Y395D01*
X0Y394D02*
X7Y394D01*
X616Y394D02*
X623Y394D01*
X0Y393D02*
X7Y393D01*
X616Y393D02*
X623Y393D01*
X0Y392D02*
X7Y392D01*
X616Y392D02*
X623Y392D01*
X0Y391D02*
X7Y391D01*
X616Y391D02*
X623Y391D01*
X0Y390D02*
X7Y390D01*
X616Y390D02*
X623Y390D01*
X0Y389D02*
X7Y389D01*
X616Y389D02*
X623Y389D01*
X0Y388D02*
X7Y388D01*
X616Y388D02*
X623Y388D01*
X0Y387D02*
X7Y387D01*
X616Y387D02*
X623Y387D01*
X0Y386D02*
X7Y386D01*
X616Y386D02*
X623Y386D01*
X0Y385D02*
X7Y385D01*
X616Y385D02*
X623Y385D01*
X0Y384D02*
X7Y384D01*
X616Y384D02*
X623Y384D01*
X0Y383D02*
X7Y383D01*
X616Y383D02*
X623Y383D01*
X0Y382D02*
X7Y382D01*
X616Y382D02*
X623Y382D01*
X0Y381D02*
X7Y381D01*
X616Y381D02*
X623Y381D01*
X0Y380D02*
X7Y380D01*
X616Y380D02*
X623Y380D01*
X0Y379D02*
X7Y379D01*
X616Y379D02*
X623Y379D01*
X0Y378D02*
X7Y378D01*
X616Y378D02*
X623Y378D01*
X0Y377D02*
X7Y377D01*
X616Y377D02*
X623Y377D01*
X0Y376D02*
X7Y376D01*
X616Y376D02*
X623Y376D01*
X0Y375D02*
X7Y375D01*
X616Y375D02*
X623Y375D01*
X0Y374D02*
X7Y374D01*
X616Y374D02*
X623Y374D01*
X0Y373D02*
X7Y373D01*
X616Y373D02*
X623Y373D01*
X0Y372D02*
X7Y372D01*
X616Y372D02*
X623Y372D01*
X0Y371D02*
X7Y371D01*
X616Y371D02*
X623Y371D01*
X0Y370D02*
X7Y370D01*
X616Y370D02*
X623Y370D01*
X0Y369D02*
X7Y369D01*
X616Y369D02*
X623Y369D01*
X0Y368D02*
X7Y368D01*
X616Y368D02*
X623Y368D01*
X0Y367D02*
X7Y367D01*
X616Y367D02*
X623Y367D01*
X0Y366D02*
X7Y366D01*
X616Y366D02*
X623Y366D01*
X0Y365D02*
X7Y365D01*
X616Y365D02*
X623Y365D01*
X0Y364D02*
X7Y364D01*
X616Y364D02*
X623Y364D01*
X0Y363D02*
X7Y363D01*
X616Y363D02*
X623Y363D01*
X0Y362D02*
X7Y362D01*
X616Y362D02*
X623Y362D01*
X0Y361D02*
X7Y361D01*
X616Y361D02*
X623Y361D01*
X0Y360D02*
X7Y360D01*
X616Y360D02*
X623Y360D01*
X0Y359D02*
X7Y359D01*
X616Y359D02*
X623Y359D01*
X0Y358D02*
X7Y358D01*
X616Y358D02*
X623Y358D01*
X0Y357D02*
X7Y357D01*
X616Y357D02*
X623Y357D01*
X0Y356D02*
X7Y356D01*
X616Y356D02*
X623Y356D01*
X0Y355D02*
X7Y355D01*
X616Y355D02*
X623Y355D01*
X0Y354D02*
X7Y354D01*
X616Y354D02*
X623Y354D01*
X0Y353D02*
X7Y353D01*
X616Y353D02*
X623Y353D01*
X0Y352D02*
X7Y352D01*
X616Y352D02*
X623Y352D01*
X0Y351D02*
X7Y351D01*
X616Y351D02*
X623Y351D01*
X0Y350D02*
X7Y350D01*
X616Y350D02*
X623Y350D01*
X0Y349D02*
X7Y349D01*
X616Y349D02*
X623Y349D01*
X0Y348D02*
X7Y348D01*
X616Y348D02*
X623Y348D01*
X0Y347D02*
X7Y347D01*
X616Y347D02*
X623Y347D01*
X0Y346D02*
X7Y346D01*
X616Y346D02*
X623Y346D01*
X0Y345D02*
X7Y345D01*
X616Y345D02*
X623Y345D01*
X0Y344D02*
X7Y344D01*
X616Y344D02*
X623Y344D01*
X0Y343D02*
X7Y343D01*
X616Y343D02*
X623Y343D01*
X0Y342D02*
X7Y342D01*
X616Y342D02*
X623Y342D01*
X0Y341D02*
X7Y341D01*
X616Y341D02*
X623Y341D01*
X0Y340D02*
X7Y340D01*
X616Y340D02*
X623Y340D01*
X0Y339D02*
X7Y339D01*
X616Y339D02*
X623Y339D01*
X0Y338D02*
X7Y338D01*
X616Y338D02*
X623Y338D01*
X0Y337D02*
X7Y337D01*
X616Y337D02*
X623Y337D01*
X0Y336D02*
X7Y336D01*
X616Y336D02*
X623Y336D01*
X0Y335D02*
X7Y335D01*
X616Y335D02*
X623Y335D01*
X0Y334D02*
X7Y334D01*
X616Y334D02*
X623Y334D01*
X0Y333D02*
X7Y333D01*
X616Y333D02*
X623Y333D01*
X0Y332D02*
X7Y332D01*
X616Y332D02*
X623Y332D01*
X0Y331D02*
X7Y331D01*
X616Y331D02*
X623Y331D01*
X0Y330D02*
X7Y330D01*
X616Y330D02*
X623Y330D01*
X0Y329D02*
X7Y329D01*
X616Y329D02*
X623Y329D01*
X0Y328D02*
X7Y328D01*
X616Y328D02*
X623Y328D01*
X0Y327D02*
X7Y327D01*
X616Y327D02*
X623Y327D01*
X0Y326D02*
X7Y326D01*
X616Y326D02*
X623Y326D01*
X0Y325D02*
X7Y325D01*
X616Y325D02*
X623Y325D01*
X0Y324D02*
X7Y324D01*
X616Y324D02*
X623Y324D01*
X0Y323D02*
X7Y323D01*
X616Y323D02*
X623Y323D01*
X0Y322D02*
X7Y322D01*
X616Y322D02*
X623Y322D01*
X0Y321D02*
X7Y321D01*
X616Y321D02*
X623Y321D01*
X0Y320D02*
X7Y320D01*
X616Y320D02*
X623Y320D01*
X0Y319D02*
X7Y319D01*
X616Y319D02*
X623Y319D01*
X0Y318D02*
X7Y318D01*
X616Y318D02*
X623Y318D01*
X0Y317D02*
X7Y317D01*
X616Y317D02*
X623Y317D01*
X0Y316D02*
X7Y316D01*
X616Y316D02*
X623Y316D01*
X0Y315D02*
X7Y315D01*
X616Y315D02*
X623Y315D01*
X0Y314D02*
X7Y314D01*
X616Y314D02*
X623Y314D01*
X0Y313D02*
X7Y313D01*
X616Y313D02*
X623Y313D01*
X0Y312D02*
X7Y312D01*
X616Y312D02*
X623Y312D01*
X0Y311D02*
X7Y311D01*
X616Y311D02*
X623Y311D01*
X0Y310D02*
X7Y310D01*
X616Y310D02*
X623Y310D01*
X0Y309D02*
X7Y309D01*
X616Y309D02*
X623Y309D01*
X0Y308D02*
X7Y308D01*
X616Y308D02*
X623Y308D01*
X0Y307D02*
X7Y307D01*
X616Y307D02*
X623Y307D01*
X0Y306D02*
X7Y306D01*
X616Y306D02*
X623Y306D01*
X0Y305D02*
X7Y305D01*
X616Y305D02*
X623Y305D01*
X0Y304D02*
X7Y304D01*
X616Y304D02*
X623Y304D01*
X0Y303D02*
X7Y303D01*
X616Y303D02*
X623Y303D01*
X0Y302D02*
X7Y302D01*
X616Y302D02*
X623Y302D01*
X0Y301D02*
X7Y301D01*
X616Y301D02*
X623Y301D01*
X0Y300D02*
X7Y300D01*
X616Y300D02*
X623Y300D01*
X0Y299D02*
X7Y299D01*
X616Y299D02*
X623Y299D01*
X0Y298D02*
X7Y298D01*
X616Y298D02*
X623Y298D01*
X0Y297D02*
X7Y297D01*
X616Y297D02*
X623Y297D01*
X0Y296D02*
X7Y296D01*
X616Y296D02*
X623Y296D01*
X0Y295D02*
X7Y295D01*
X616Y295D02*
X623Y295D01*
X0Y294D02*
X7Y294D01*
X616Y294D02*
X623Y294D01*
X0Y293D02*
X7Y293D01*
X616Y293D02*
X623Y293D01*
X0Y292D02*
X7Y292D01*
X616Y292D02*
X623Y292D01*
X0Y291D02*
X7Y291D01*
X616Y291D02*
X623Y291D01*
X0Y290D02*
X7Y290D01*
X616Y290D02*
X623Y290D01*
X0Y289D02*
X7Y289D01*
X616Y289D02*
X623Y289D01*
X0Y288D02*
X7Y288D01*
X616Y288D02*
X623Y288D01*
X0Y287D02*
X7Y287D01*
X616Y287D02*
X623Y287D01*
X0Y286D02*
X7Y286D01*
X616Y286D02*
X623Y286D01*
X0Y285D02*
X7Y285D01*
X616Y285D02*
X623Y285D01*
X0Y284D02*
X7Y284D01*
X616Y284D02*
X623Y284D01*
X0Y283D02*
X7Y283D01*
X616Y283D02*
X623Y283D01*
X0Y282D02*
X7Y282D01*
X616Y282D02*
X623Y282D01*
X0Y281D02*
X7Y281D01*
X616Y281D02*
X623Y281D01*
X0Y280D02*
X7Y280D01*
X616Y280D02*
X623Y280D01*
X0Y279D02*
X7Y279D01*
X616Y279D02*
X623Y279D01*
X0Y278D02*
X7Y278D01*
X616Y278D02*
X623Y278D01*
X0Y277D02*
X7Y277D01*
X616Y277D02*
X623Y277D01*
X0Y276D02*
X7Y276D01*
X616Y276D02*
X623Y276D01*
X0Y275D02*
X7Y275D01*
X616Y275D02*
X623Y275D01*
X0Y274D02*
X7Y274D01*
X616Y274D02*
X623Y274D01*
X0Y273D02*
X7Y273D01*
X616Y273D02*
X623Y273D01*
X0Y272D02*
X7Y272D01*
X616Y272D02*
X623Y272D01*
X0Y271D02*
X7Y271D01*
X616Y271D02*
X623Y271D01*
X0Y270D02*
X7Y270D01*
X616Y270D02*
X623Y270D01*
X0Y269D02*
X7Y269D01*
X616Y269D02*
X623Y269D01*
X0Y268D02*
X7Y268D01*
X616Y268D02*
X623Y268D01*
X0Y267D02*
X7Y267D01*
X616Y267D02*
X623Y267D01*
X0Y266D02*
X7Y266D01*
X616Y266D02*
X623Y266D01*
X0Y265D02*
X7Y265D01*
X616Y265D02*
X623Y265D01*
X0Y264D02*
X7Y264D01*
X616Y264D02*
X623Y264D01*
X0Y263D02*
X7Y263D01*
X616Y263D02*
X623Y263D01*
X0Y262D02*
X7Y262D01*
X616Y262D02*
X623Y262D01*
X0Y261D02*
X7Y261D01*
X616Y261D02*
X623Y261D01*
X0Y260D02*
X7Y260D01*
X616Y260D02*
X623Y260D01*
X0Y259D02*
X7Y259D01*
X616Y259D02*
X623Y259D01*
X0Y258D02*
X7Y258D01*
X616Y258D02*
X623Y258D01*
X0Y257D02*
X7Y257D01*
X616Y257D02*
X623Y257D01*
X0Y256D02*
X7Y256D01*
X616Y256D02*
X623Y256D01*
X0Y255D02*
X7Y255D01*
X616Y255D02*
X623Y255D01*
X0Y254D02*
X7Y254D01*
X616Y254D02*
X623Y254D01*
X0Y253D02*
X7Y253D01*
X616Y253D02*
X623Y253D01*
X0Y252D02*
X7Y252D01*
X616Y252D02*
X623Y252D01*
X0Y251D02*
X7Y251D01*
X616Y251D02*
X623Y251D01*
X0Y250D02*
X7Y250D01*
X616Y250D02*
X623Y250D01*
X0Y249D02*
X7Y249D01*
X616Y249D02*
X623Y249D01*
X0Y248D02*
X7Y248D01*
X616Y248D02*
X623Y248D01*
X0Y247D02*
X7Y247D01*
X616Y247D02*
X623Y247D01*
X0Y246D02*
X7Y246D01*
X616Y246D02*
X623Y246D01*
X0Y245D02*
X7Y245D01*
X616Y245D02*
X623Y245D01*
X0Y244D02*
X7Y244D01*
X616Y244D02*
X623Y244D01*
X0Y243D02*
X7Y243D01*
X616Y243D02*
X623Y243D01*
X0Y242D02*
X7Y242D01*
X616Y242D02*
X623Y242D01*
X0Y241D02*
X7Y241D01*
X616Y241D02*
X623Y241D01*
X0Y240D02*
X7Y240D01*
X616Y240D02*
X623Y240D01*
X0Y239D02*
X7Y239D01*
X616Y239D02*
X623Y239D01*
X0Y238D02*
X7Y238D01*
X616Y238D02*
X623Y238D01*
X0Y237D02*
X7Y237D01*
X616Y237D02*
X623Y237D01*
X0Y236D02*
X7Y236D01*
X616Y236D02*
X623Y236D01*
X0Y235D02*
X7Y235D01*
X616Y235D02*
X623Y235D01*
X0Y234D02*
X7Y234D01*
X616Y234D02*
X623Y234D01*
X0Y233D02*
X7Y233D01*
X616Y233D02*
X623Y233D01*
X0Y232D02*
X7Y232D01*
X616Y232D02*
X623Y232D01*
X0Y231D02*
X7Y231D01*
X616Y231D02*
X623Y231D01*
X0Y230D02*
X7Y230D01*
X616Y230D02*
X623Y230D01*
X0Y229D02*
X7Y229D01*
X616Y229D02*
X623Y229D01*
X0Y228D02*
X7Y228D01*
X616Y228D02*
X623Y228D01*
X0Y227D02*
X7Y227D01*
X616Y227D02*
X623Y227D01*
X0Y226D02*
X7Y226D01*
X616Y226D02*
X623Y226D01*
X0Y225D02*
X7Y225D01*
X616Y225D02*
X623Y225D01*
X0Y224D02*
X7Y224D01*
X616Y224D02*
X623Y224D01*
X0Y223D02*
X7Y223D01*
X616Y223D02*
X623Y223D01*
X0Y222D02*
X7Y222D01*
X616Y222D02*
X623Y222D01*
X0Y221D02*
X7Y221D01*
X616Y221D02*
X623Y221D01*
X0Y220D02*
X7Y220D01*
X616Y220D02*
X623Y220D01*
X0Y219D02*
X7Y219D01*
X616Y219D02*
X623Y219D01*
X0Y218D02*
X7Y218D01*
X616Y218D02*
X623Y218D01*
X0Y217D02*
X7Y217D01*
X616Y217D02*
X623Y217D01*
X0Y216D02*
X7Y216D01*
X616Y216D02*
X623Y216D01*
X0Y215D02*
X7Y215D01*
X616Y215D02*
X623Y215D01*
X0Y214D02*
X7Y214D01*
X616Y214D02*
X623Y214D01*
X0Y213D02*
X7Y213D01*
X616Y213D02*
X623Y213D01*
X0Y212D02*
X7Y212D01*
X616Y212D02*
X623Y212D01*
X0Y211D02*
X7Y211D01*
X616Y211D02*
X623Y211D01*
X0Y210D02*
X7Y210D01*
X616Y210D02*
X623Y210D01*
X0Y209D02*
X7Y209D01*
X616Y209D02*
X623Y209D01*
X0Y208D02*
X7Y208D01*
X616Y208D02*
X623Y208D01*
X0Y207D02*
X7Y207D01*
X616Y207D02*
X623Y207D01*
X0Y206D02*
X7Y206D01*
X616Y206D02*
X623Y206D01*
X0Y205D02*
X7Y205D01*
X616Y205D02*
X623Y205D01*
X0Y204D02*
X7Y204D01*
X616Y204D02*
X623Y204D01*
X0Y203D02*
X7Y203D01*
X616Y203D02*
X623Y203D01*
X0Y202D02*
X7Y202D01*
X616Y202D02*
X623Y202D01*
X0Y201D02*
X7Y201D01*
X616Y201D02*
X623Y201D01*
X0Y200D02*
X7Y200D01*
X616Y200D02*
X623Y200D01*
X0Y199D02*
X7Y199D01*
X616Y199D02*
X623Y199D01*
X0Y198D02*
X7Y198D01*
X616Y198D02*
X623Y198D01*
X0Y197D02*
X7Y197D01*
X616Y197D02*
X623Y197D01*
X0Y196D02*
X7Y196D01*
X616Y196D02*
X623Y196D01*
X0Y195D02*
X7Y195D01*
X616Y195D02*
X623Y195D01*
X0Y194D02*
X7Y194D01*
X616Y194D02*
X623Y194D01*
X0Y193D02*
X7Y193D01*
X616Y193D02*
X623Y193D01*
X0Y192D02*
X7Y192D01*
X616Y192D02*
X623Y192D01*
X0Y191D02*
X7Y191D01*
X616Y191D02*
X623Y191D01*
X0Y190D02*
X7Y190D01*
X616Y190D02*
X623Y190D01*
X0Y189D02*
X7Y189D01*
X616Y189D02*
X623Y189D01*
X0Y188D02*
X7Y188D01*
X616Y188D02*
X623Y188D01*
X0Y187D02*
X7Y187D01*
X616Y187D02*
X623Y187D01*
X0Y186D02*
X7Y186D01*
X616Y186D02*
X623Y186D01*
X0Y185D02*
X7Y185D01*
X616Y185D02*
X623Y185D01*
X0Y184D02*
X7Y184D01*
X616Y184D02*
X623Y184D01*
X0Y183D02*
X7Y183D01*
X616Y183D02*
X623Y183D01*
X0Y182D02*
X7Y182D01*
X616Y182D02*
X623Y182D01*
X0Y181D02*
X7Y181D01*
X616Y181D02*
X623Y181D01*
X0Y180D02*
X7Y180D01*
X616Y180D02*
X623Y180D01*
X0Y179D02*
X7Y179D01*
X616Y179D02*
X623Y179D01*
X0Y178D02*
X7Y178D01*
X616Y178D02*
X623Y178D01*
X0Y177D02*
X7Y177D01*
X616Y177D02*
X623Y177D01*
X0Y176D02*
X7Y176D01*
X616Y176D02*
X623Y176D01*
X0Y175D02*
X7Y175D01*
X616Y175D02*
X623Y175D01*
X0Y174D02*
X7Y174D01*
X616Y174D02*
X623Y174D01*
X0Y173D02*
X7Y173D01*
X616Y173D02*
X623Y173D01*
X0Y172D02*
X7Y172D01*
X616Y172D02*
X623Y172D01*
X0Y171D02*
X7Y171D01*
X616Y171D02*
X623Y171D01*
X0Y170D02*
X7Y170D01*
X616Y170D02*
X623Y170D01*
X0Y169D02*
X7Y169D01*
X616Y169D02*
X623Y169D01*
X0Y168D02*
X7Y168D01*
X616Y168D02*
X623Y168D01*
X0Y167D02*
X7Y167D01*
X616Y167D02*
X623Y167D01*
X0Y166D02*
X7Y166D01*
X616Y166D02*
X623Y166D01*
X0Y165D02*
X7Y165D01*
X616Y165D02*
X623Y165D01*
X0Y164D02*
X7Y164D01*
X616Y164D02*
X623Y164D01*
X0Y163D02*
X7Y163D01*
X616Y163D02*
X623Y163D01*
X0Y162D02*
X7Y162D01*
X616Y162D02*
X623Y162D01*
X0Y161D02*
X7Y161D01*
X616Y161D02*
X623Y161D01*
X0Y160D02*
X7Y160D01*
X616Y160D02*
X623Y160D01*
X0Y159D02*
X7Y159D01*
X616Y159D02*
X623Y159D01*
X0Y158D02*
X7Y158D01*
X616Y158D02*
X623Y158D01*
X0Y157D02*
X7Y157D01*
X616Y157D02*
X623Y157D01*
X0Y156D02*
X7Y156D01*
X616Y156D02*
X623Y156D01*
X0Y155D02*
X7Y155D01*
X616Y155D02*
X623Y155D01*
X0Y154D02*
X7Y154D01*
X616Y154D02*
X623Y154D01*
X0Y153D02*
X7Y153D01*
X616Y153D02*
X623Y153D01*
X0Y152D02*
X7Y152D01*
X616Y152D02*
X623Y152D01*
X0Y151D02*
X7Y151D01*
X616Y151D02*
X623Y151D01*
X0Y150D02*
X7Y150D01*
X616Y150D02*
X623Y150D01*
X0Y149D02*
X7Y149D01*
X616Y149D02*
X623Y149D01*
X0Y148D02*
X7Y148D01*
X616Y148D02*
X623Y148D01*
X0Y147D02*
X7Y147D01*
X616Y147D02*
X623Y147D01*
X0Y146D02*
X7Y146D01*
X616Y146D02*
X623Y146D01*
X0Y145D02*
X7Y145D01*
X616Y145D02*
X623Y145D01*
X0Y144D02*
X7Y144D01*
X616Y144D02*
X623Y144D01*
X0Y143D02*
X7Y143D01*
X616Y143D02*
X623Y143D01*
X0Y142D02*
X7Y142D01*
X616Y142D02*
X623Y142D01*
X0Y141D02*
X7Y141D01*
X616Y141D02*
X623Y141D01*
X0Y140D02*
X7Y140D01*
X616Y140D02*
X623Y140D01*
X0Y139D02*
X7Y139D01*
X616Y139D02*
X623Y139D01*
X0Y138D02*
X7Y138D01*
X616Y138D02*
X623Y138D01*
X0Y137D02*
X7Y137D01*
X616Y137D02*
X623Y137D01*
X0Y136D02*
X7Y136D01*
X616Y136D02*
X623Y136D01*
X0Y135D02*
X7Y135D01*
X616Y135D02*
X623Y135D01*
X0Y134D02*
X7Y134D01*
X616Y134D02*
X623Y134D01*
X0Y133D02*
X7Y133D01*
X616Y133D02*
X623Y133D01*
X0Y132D02*
X7Y132D01*
X616Y132D02*
X623Y132D01*
X0Y131D02*
X7Y131D01*
X616Y131D02*
X623Y131D01*
X0Y130D02*
X7Y130D01*
X616Y130D02*
X623Y130D01*
X0Y129D02*
X7Y129D01*
X616Y129D02*
X623Y129D01*
X0Y128D02*
X7Y128D01*
X616Y128D02*
X623Y128D01*
X0Y127D02*
X7Y127D01*
X616Y127D02*
X623Y127D01*
X0Y126D02*
X7Y126D01*
X616Y126D02*
X623Y126D01*
X0Y125D02*
X7Y125D01*
X616Y125D02*
X623Y125D01*
X0Y124D02*
X7Y124D01*
X616Y124D02*
X623Y124D01*
X0Y123D02*
X7Y123D01*
X616Y123D02*
X623Y123D01*
X0Y122D02*
X7Y122D01*
X616Y122D02*
X623Y122D01*
X0Y121D02*
X7Y121D01*
X616Y121D02*
X623Y121D01*
X0Y120D02*
X7Y120D01*
X616Y120D02*
X623Y120D01*
X0Y119D02*
X7Y119D01*
X616Y119D02*
X623Y119D01*
X0Y118D02*
X7Y118D01*
X616Y118D02*
X623Y118D01*
X0Y117D02*
X7Y117D01*
X616Y117D02*
X623Y117D01*
X0Y116D02*
X7Y116D01*
X616Y116D02*
X623Y116D01*
X0Y115D02*
X7Y115D01*
X616Y115D02*
X623Y115D01*
X0Y114D02*
X7Y114D01*
X616Y114D02*
X623Y114D01*
X0Y113D02*
X7Y113D01*
X616Y113D02*
X623Y113D01*
X0Y112D02*
X7Y112D01*
X616Y112D02*
X623Y112D01*
X0Y111D02*
X7Y111D01*
X616Y111D02*
X623Y111D01*
X0Y110D02*
X7Y110D01*
X616Y110D02*
X623Y110D01*
X0Y109D02*
X7Y109D01*
X616Y109D02*
X623Y109D01*
X0Y108D02*
X7Y108D01*
X616Y108D02*
X623Y108D01*
X0Y107D02*
X7Y107D01*
X616Y107D02*
X623Y107D01*
X0Y106D02*
X7Y106D01*
X616Y106D02*
X623Y106D01*
X0Y105D02*
X7Y105D01*
X616Y105D02*
X623Y105D01*
X0Y104D02*
X7Y104D01*
X616Y104D02*
X623Y104D01*
X0Y103D02*
X7Y103D01*
X616Y103D02*
X623Y103D01*
X0Y102D02*
X7Y102D01*
X616Y102D02*
X623Y102D01*
X0Y101D02*
X7Y101D01*
X616Y101D02*
X623Y101D01*
X0Y100D02*
X7Y100D01*
X616Y100D02*
X623Y100D01*
X0Y99D02*
X7Y99D01*
X616Y99D02*
X623Y99D01*
X0Y98D02*
X7Y98D01*
X616Y98D02*
X623Y98D01*
X0Y97D02*
X7Y97D01*
X616Y97D02*
X623Y97D01*
X0Y96D02*
X7Y96D01*
X616Y96D02*
X623Y96D01*
X0Y95D02*
X7Y95D01*
X616Y95D02*
X623Y95D01*
X0Y94D02*
X7Y94D01*
X616Y94D02*
X623Y94D01*
X0Y93D02*
X7Y93D01*
X616Y93D02*
X623Y93D01*
X0Y92D02*
X7Y92D01*
X616Y92D02*
X623Y92D01*
X0Y91D02*
X7Y91D01*
X616Y91D02*
X623Y91D01*
X0Y90D02*
X7Y90D01*
X616Y90D02*
X623Y90D01*
X0Y89D02*
X7Y89D01*
X616Y89D02*
X623Y89D01*
X0Y88D02*
X7Y88D01*
X616Y88D02*
X623Y88D01*
X0Y87D02*
X7Y87D01*
X616Y87D02*
X623Y87D01*
X0Y86D02*
X7Y86D01*
X616Y86D02*
X623Y86D01*
X0Y85D02*
X7Y85D01*
X616Y85D02*
X623Y85D01*
X0Y84D02*
X7Y84D01*
X616Y84D02*
X623Y84D01*
X0Y83D02*
X7Y83D01*
X616Y83D02*
X623Y83D01*
X0Y82D02*
X7Y82D01*
X616Y82D02*
X623Y82D01*
X0Y81D02*
X7Y81D01*
X616Y81D02*
X623Y81D01*
X0Y80D02*
X7Y80D01*
X616Y80D02*
X623Y80D01*
X0Y79D02*
X7Y79D01*
X616Y79D02*
X623Y79D01*
X0Y78D02*
X7Y78D01*
X616Y78D02*
X623Y78D01*
X0Y77D02*
X7Y77D01*
X616Y77D02*
X623Y77D01*
X0Y76D02*
X7Y76D01*
X616Y76D02*
X623Y76D01*
X0Y75D02*
X7Y75D01*
X616Y75D02*
X623Y75D01*
X0Y74D02*
X7Y74D01*
X616Y74D02*
X623Y74D01*
X0Y73D02*
X7Y73D01*
X616Y73D02*
X623Y73D01*
X0Y72D02*
X7Y72D01*
X616Y72D02*
X623Y72D01*
X0Y71D02*
X7Y71D01*
X616Y71D02*
X623Y71D01*
X0Y70D02*
X7Y70D01*
X616Y70D02*
X623Y70D01*
X0Y69D02*
X7Y69D01*
X616Y69D02*
X623Y69D01*
X0Y68D02*
X7Y68D01*
X616Y68D02*
X623Y68D01*
X0Y67D02*
X7Y67D01*
X616Y67D02*
X623Y67D01*
X0Y66D02*
X7Y66D01*
X616Y66D02*
X623Y66D01*
X0Y65D02*
X7Y65D01*
X616Y65D02*
X623Y65D01*
X0Y64D02*
X7Y64D01*
X616Y64D02*
X623Y64D01*
X0Y63D02*
X7Y63D01*
X616Y63D02*
X623Y63D01*
X0Y62D02*
X7Y62D01*
X616Y62D02*
X623Y62D01*
X0Y61D02*
X7Y61D01*
X616Y61D02*
X623Y61D01*
X0Y60D02*
X7Y60D01*
X616Y60D02*
X623Y60D01*
X0Y59D02*
X7Y59D01*
X616Y59D02*
X623Y59D01*
X0Y58D02*
X7Y58D01*
X616Y58D02*
X623Y58D01*
X0Y57D02*
X7Y57D01*
X616Y57D02*
X623Y57D01*
X0Y56D02*
X7Y56D01*
X616Y56D02*
X623Y56D01*
X0Y55D02*
X7Y55D01*
X616Y55D02*
X623Y55D01*
X0Y54D02*
X7Y54D01*
X616Y54D02*
X623Y54D01*
X0Y53D02*
X7Y53D01*
X616Y53D02*
X623Y53D01*
X0Y52D02*
X7Y52D01*
X616Y52D02*
X623Y52D01*
X0Y51D02*
X7Y51D01*
X616Y51D02*
X623Y51D01*
X0Y50D02*
X7Y50D01*
X616Y50D02*
X623Y50D01*
X0Y49D02*
X7Y49D01*
X616Y49D02*
X623Y49D01*
X0Y48D02*
X7Y48D01*
X616Y48D02*
X623Y48D01*
X0Y47D02*
X7Y47D01*
X616Y47D02*
X623Y47D01*
X0Y46D02*
X7Y46D01*
X616Y46D02*
X623Y46D01*
X0Y45D02*
X7Y45D01*
X616Y45D02*
X623Y45D01*
X0Y44D02*
X7Y44D01*
X616Y44D02*
X623Y44D01*
X0Y43D02*
X7Y43D01*
X616Y43D02*
X623Y43D01*
X0Y42D02*
X7Y42D01*
X616Y42D02*
X623Y42D01*
X0Y41D02*
X7Y41D01*
X616Y41D02*
X623Y41D01*
X0Y40D02*
X7Y40D01*
X616Y40D02*
X623Y40D01*
X0Y39D02*
X7Y39D01*
X616Y39D02*
X623Y39D01*
X0Y38D02*
X7Y38D01*
X616Y38D02*
X623Y38D01*
X0Y37D02*
X7Y37D01*
X616Y37D02*
X623Y37D01*
X0Y36D02*
X7Y36D01*
X616Y36D02*
X623Y36D01*
X0Y35D02*
X7Y35D01*
X616Y35D02*
X623Y35D01*
X0Y34D02*
X7Y34D01*
X616Y34D02*
X623Y34D01*
X0Y33D02*
X7Y33D01*
X616Y33D02*
X623Y33D01*
X0Y32D02*
X7Y32D01*
X616Y32D02*
X623Y32D01*
X0Y31D02*
X7Y31D01*
X616Y31D02*
X623Y31D01*
X0Y30D02*
X7Y30D01*
X616Y30D02*
X623Y30D01*
X0Y29D02*
X7Y29D01*
X616Y29D02*
X623Y29D01*
X0Y28D02*
X7Y28D01*
X616Y28D02*
X623Y28D01*
X0Y27D02*
X7Y27D01*
X616Y27D02*
X623Y27D01*
X0Y26D02*
X7Y26D01*
X616Y26D02*
X623Y26D01*
X0Y25D02*
X7Y25D01*
X616Y25D02*
X623Y25D01*
X0Y24D02*
X7Y24D01*
X616Y24D02*
X623Y24D01*
X0Y23D02*
X7Y23D01*
X616Y23D02*
X623Y23D01*
X0Y22D02*
X7Y22D01*
X616Y22D02*
X623Y22D01*
X0Y21D02*
X7Y21D01*
X616Y21D02*
X623Y21D01*
X0Y20D02*
X7Y20D01*
X616Y20D02*
X623Y20D01*
X0Y19D02*
X7Y19D01*
X616Y19D02*
X623Y19D01*
X0Y18D02*
X7Y18D01*
X616Y18D02*
X623Y18D01*
X0Y17D02*
X7Y17D01*
X616Y17D02*
X623Y17D01*
X0Y16D02*
X7Y16D01*
X616Y16D02*
X623Y16D01*
X0Y15D02*
X7Y15D01*
X616Y15D02*
X623Y15D01*
X0Y14D02*
X7Y14D01*
X616Y14D02*
X623Y14D01*
X0Y13D02*
X7Y13D01*
X616Y13D02*
X623Y13D01*
X0Y12D02*
X7Y12D01*
X616Y12D02*
X623Y12D01*
X0Y11D02*
X7Y11D01*
X616Y11D02*
X623Y11D01*
X0Y10D02*
X7Y10D01*
X616Y10D02*
X623Y10D01*
X0Y9D02*
X7Y9D01*
X616Y9D02*
X623Y9D01*
X0Y8D02*
X623Y8D01*
X0Y7D02*
X623Y7D01*
X0Y6D02*
X623Y6D01*
X0Y5D02*
X623Y5D01*
X0Y4D02*
X623Y4D01*
X0Y3D02*
X623Y3D01*
X0Y2D02*
X623Y2D01*
X0Y1D02*
X623Y1D01*
D02*
G04 End of Silk1*
M02*