; NON-PLATED HOLES START AT T1
; THROUGH (PLATED) HOLES START AT T100
M48
INCH
T100C0.035000
T101C0.031496
%
T100
X001630Y004565
X004630Y001565
X001630Y003565
X001630Y005565
X001630Y002565
X004630Y005565
X004630Y004565
X004630Y006565
X001630Y001565
X004630Y003565
X002630Y006565
X004630Y002565
T101
X005630Y005565
X004630Y000565
X003630Y000565
X005630Y000565
X005630Y006565
X000630Y007565
X005630Y007565
X000630Y006565
X002630Y000565
X000630Y005565
X001630Y000565
T00
M30
